<?xml version="1.0" standalone="no"?>
<!DOCTYPE svg PUBLIC "-//W3C//DTD SVG 20010904//EN"
 "http://www.w3.org/TR/2001/REC-SVG-20010904/DTD/svg10.dtd">
<svg version="1.0" xmlns="http://www.w3.org/2000/svg"
 width="409.000000pt" height="409.000000pt" viewBox="0 0 409.000000 409.000000"
 preserveAspectRatio="xMidYMid meet">
<metadata>
Created by potrace 1.11, written by Peter Selinger 2001-2013
</metadata>
<g transform="translate(0.000000,409.000000) scale(0.100000,-0.100000)"
fill="#000000" stroke="none">
<path d="M1830 3623 c0 -10 5 -25 11 -33 9 -13 10 -12 5 2 -3 10 -1 20 4 23
15 9 12 25 -5 25 -8 0 -15 -8 -15 -17z"/>
<path d="M1783 3623 c-17 -6 -16 -20 1 -26 8 -3 17 1 20 8 6 17 -3 24 -21 18z"/>
<path d="M1887 3605 c-4 -24 -3 -25 14 -9 10 9 16 21 13 25 -10 16 -22 9 -27
-16z"/>
<path d="M1730 3591 c0 -10 30 -24 37 -17 3 3 2 9 -2 15 -8 13 -35 15 -35 2z"/>
<path d="M1917 3587 c-3 -8 3 -13 14 -13 11 0 19 6 19 13 0 7 -6 13 -14 13 -8
0 -16 -6 -19 -13z"/>
<path d="M1805 3570 c3 -5 8 -10 11 -10 2 0 4 5 4 10 0 6 -5 10 -11 10 -5 0
-7 -4 -4 -10z"/>
<path d="M1895 3550 c-3 -6 1 -7 9 -4 18 7 21 14 7 14 -6 0 -13 -4 -16 -10z"/>
<path d="M1798 3538 c12 -15 12 -20 -2 -34 -9 -8 -14 -20 -11 -25 4 -5 2 -9
-3 -9 -5 0 -7 -11 -5 -24 3 -13 -3 -36 -14 -52 l-18 -29 31 20 c50 33 84 62
84 74 0 18 38 13 49 -7 12 -22 -1 -45 -45 -84 -35 -31 -42 -52 -24 -63 15 -9
42 15 35 32 -3 9 0 13 7 11 14 -5 19 -36 7 -44 -17 -10 -9 -21 14 -17 12 2 41
0 65 -5 23 -6 44 -6 47 -2 16 26 114 -36 115 -74 0 -6 7 -3 14 6 7 10 16 14
20 10 4 -4 1 7 -7 23 -9 17 -20 42 -25 56 -15 38 -59 57 -123 52 -29 -2 -55
-6 -58 -8 -2 -3 -12 2 -22 11 -13 11 -15 22 -10 37 10 25 7 48 -9 88 -12 29
-43 49 -38 25 2 -8 -14 -26 -35 -40 l-38 -26 4 27 c3 16 8 35 11 44 4 9 0 21
-11 30 -16 13 -17 12 -5 -3z m301 -218 c11 -8 23 -28 26 -45 l7 -30 -24 28
c-24 29 -91 46 -103 26 -8 -11 -66 -2 -80 13 -7 7 -2 9 17 4 15 -3 30 -1 33 4
4 6 10 8 14 6 4 -3 13 -1 21 4 21 14 66 8 89 -10z"/>
<path d="M1832 3504 c-7 -8 -12 -19 -10 -25 2 -6 12 -2 21 9 10 11 15 22 10
25 -4 3 -14 -2 -21 -9z"/>
<path d="M1852 3418 c-12 -18 -29 -44 -39 -58 -12 -17 -1 -11 35 19 29 24 51
48 49 54 -7 23 -25 17 -45 -15z"/>
<path d="M1790 3291 c0 -11 10 -42 22 -70 17 -38 32 -54 63 -70 72 -35 96 -42
110 -31 10 8 15 8 21 -1 4 -8 3 -9 -4 -5 -7 4 -12 2 -12 -3 0 -6 6 -11 14 -11
7 0 21 -15 29 -32 17 -35 10 -52 -23 -63 -10 -3 -23 -18 -28 -33 -6 -15 -21
-39 -34 -53 -13 -15 -34 -41 -48 -59 -14 -19 -38 -50 -55 -70 -16 -20 -46 -56
-65 -79 -19 -24 -73 -89 -118 -145 -46 -55 -91 -110 -100 -121 -10 -11 -44
-54 -76 -95 -33 -41 -62 -77 -65 -80 -4 -3 -26 -30 -51 -60 -72 -88 -73 -89
-82 -84 -5 3 -7 0 -6 -8 2 -7 -3 -12 -10 -10 -8 1 -11 -2 -7 -8 3 -6 -7 -24
-24 -40 -16 -17 -26 -30 -23 -30 4 0 -2 -7 -12 -15 -11 -8 -17 -15 -13 -15 4
0 -2 -10 -12 -22 -11 -13 -54 -66 -96 -118 -41 -52 -81 -102 -88 -110 -7 -8
-41 -51 -77 -95 -35 -44 -67 -82 -70 -85 -3 -3 -31 -37 -63 -77 l-59 -72 21
-22 c18 -20 21 -20 27 -6 5 13 20 17 67 17 l60 0 -49 -26 c-65 -34 -93 -61
-115 -109 -44 -100 7 -179 120 -189 54 -4 134 33 182 85 l37 40 63 -60 c35
-34 67 -61 70 -61 4 0 17 9 30 19 22 18 22 20 4 15 -16 -4 -38 11 -89 59 -37
36 -63 67 -58 71 5 3 23 8 41 11 18 3 40 12 48 20 8 8 21 15 28 15 24 0 57 52
51 80 l-5 26 215 -2 c118 0 217 -4 220 -6 2 -3 195 -4 427 -2 357 3 543 6
1057 16 30 0 73 -4 94 -10 33 -10 43 -9 58 5 16 15 14 20 -45 92 -34 42 -65
78 -68 81 -3 3 -41 50 -85 105 -81 102 -111 139 -129 159 -6 6 -49 58 -95 116
-47 57 -93 114 -102 125 -22 26 -180 221 -297 365 -79 97 -90 115 -73 118 28
4 52 34 57 71 3 25 -2 35 -21 47 -22 15 -26 15 -49 0 -37 -24 -30 -3 10 33 38
33 56 41 35 16 -10 -12 -7 -20 19 -44 17 -16 31 -35 31 -43 0 -7 9 -2 20 12
17 22 24 10 8 -15 -10 -16 -3 -78 11 -100 8 -12 27 -29 43 -38 l31 -18 -32 36
c-17 20 -31 39 -32 43 -5 37 -5 62 1 62 11 0 1 65 -10 68 -6 2 -8 7 -5 11 2 4
-9 23 -25 42 -16 19 -29 28 -30 22 0 -7 -3 -13 -8 -13 -4 0 -6 18 -4 41 3 22
-1 46 -7 52 -13 13 -15 27 -3 27 10 0 32 -50 32 -72 0 -9 14 -33 31 -53 25
-28 38 -35 67 -35 19 0 43 7 52 15 22 20 50 9 50 -18 0 -11 3 -17 7 -14 3 4
17 -3 30 -15 19 -18 23 -19 23 -5 0 46 -54 103 -71 75 -9 -14 -12 -5 -10 24 1
9 -5 31 -14 48 -12 23 -22 31 -35 27 -18 -5 -18 -4 1 22 19 26 18 61 -3 61 -5
0 -7 -4 -4 -8 3 -5 -4 -25 -14 -45 -11 -21 -17 -37 -13 -37 5 0 0 -5 -9 -11
-19 -11 -24 -54 -9 -64 6 -3 8 4 6 15 -6 34 43 67 60 40 14 -22 12 -47 -5 -70
-16 -21 -22 -23 -55 -14 -23 5 -41 18 -50 34 -7 14 -23 45 -35 70 -13 25 -28
48 -34 52 -20 13 -27 -9 -14 -43 20 -51 17 -62 -28 -107 -43 -42 -63 -92 -37
-92 8 0 12 -4 8 -9 -3 -5 -1 -12 4 -15 5 -3 11 3 14 14 7 28 43 26 51 -2 4
-17 -1 -29 -19 -45 -24 -22 -27 -22 -50 -7 -14 9 -26 24 -27 33 -5 47 -3 59
14 91 l18 35 -26 5 c-15 3 -30 14 -34 25 -7 19 -8 19 -15 2 -8 -19 21 -61 36
-51 15 9 9 -10 -10 -33 -20 -24 -41 -30 -41 -13 0 6 5 10 10 10 6 0 10 9 10
20 0 27 -16 25 -24 -2 -4 -16 -8 -20 -16 -12 -7 7 -8 19 -1 35 12 30 25 81 23
92 -3 13 19 8 35 -8 21 -22 36 -14 49 25 7 21 13 28 16 19 3 -8 -1 -29 -8 -46
-7 -18 -10 -33 -6 -33 4 0 0 -5 -8 -10 -13 -8 -12 -10 3 -10 9 0 18 5 18 10 3
20 5 25 14 40 25 40 4 87 -33 73 -10 -4 -13 -2 -8 6 4 6 13 11 19 10 18 -4 65
22 72 38 4 11 1 13 -11 9 -15 -6 -15 -4 -3 10 16 19 22 54 10 54 -5 0 -11 -10
-13 -22 -2 -13 -8 -22 -14 -21 -6 1 -9 -8 -7 -21 3 -14 0 -23 -9 -24 -7 -1
-30 -5 -51 -8 -23 -4 -43 -2 -52 6 -8 6 -18 9 -24 6 -5 -3 -12 -1 -14 4 -3 6
-4 5 -3 -2 2 -7 8 -13 15 -13 6 0 16 -6 20 -14 10 -15 3 -51 -10 -51 -5 0 -6
7 -2 16 6 17 -33 64 -54 64 -8 0 -11 4 -8 10 3 5 0 7 -7 5 -9 -4 -14 4 -16 21
-2 23 1 26 21 20 12 -3 25 -6 29 -6 4 0 5 -6 2 -14 -4 -10 6 -18 33 -25 61
-17 113 -12 113 12 0 6 -3 7 -7 4 -3 -4 -13 -1 -21 6 -13 9 -14 9 -8 0 5 -9
-1 -13 -19 -13 -32 0 -68 18 -60 29 3 5 -2 11 -10 15 -23 8 -18 25 5 19 26 -7
67 26 48 39 -20 12 -28 10 -22 -7 12 -31 -34 -15 -64 22 l-29 37 4 -31 c4 -22
0 -32 -12 -36 -9 -4 -13 -3 -10 3 3 6 -1 7 -10 4 -9 -4 -14 -13 -11 -21 9 -23
-14 -110 -34 -128 -25 -22 -38 0 -15 25 10 11 21 37 25 59 6 32 3 41 -12 52
-10 7 -18 20 -18 29 1 11 6 8 20 -9 22 -25 26 -21 10 10 -8 15 -7 19 5 19 8 0
14 5 13 12 -2 7 9 14 24 17 20 5 25 10 19 20 -5 7 -13 11 -19 7 -5 -3 -21 3
-34 14 -25 19 -77 25 -58 6 21 -21 8 -25 -24 -7 -39 22 -50 18 -34 -13 7 -11
13 -27 14 -35 2 -8 14 -24 29 -35 31 -26 48 -78 35 -112 -5 -13 -15 -24 -23
-24 -15 0 -37 20 -37 34 0 6 5 5 12 -2 7 -7 17 -12 23 -12 5 0 -1 9 -14 19
-19 15 -25 29 -26 67 -2 63 -3 66 -14 60 -5 -4 -20 -1 -33 4 -20 9 -21 10 -2
7 43 -9 47 9 11 47 -19 20 -29 36 -22 36 7 0 16 -7 19 -16 6 -16 26 -11 26 7
0 6 -3 8 -7 6 -5 -3 -14 2 -21 10 -12 12 -10 13 10 11 13 -2 29 -7 36 -12 30
-18 24 7 -7 35 -29 25 -39 28 -72 23 -21 -4 -52 -2 -68 4 -30 11 -45 0 -16
-12 8 -3 12 -12 9 -20 -10 -26 4 -36 31 -24 14 6 25 15 25 20 0 5 4 7 10 3 6
-3 5 -15 -2 -30 -11 -25 -28 -34 -28 -15 0 7 -7 7 -20 0 -27 -14 -43 -3 -36
25 4 15 1 25 -9 29 -17 6 -29 -9 -19 -26 5 -8 1 -9 -12 -4 -32 12 40 -49 75
-63 17 -8 31 -17 31 -22 0 -11 -87 26 -106 46 -23 22 -40 78 -26 83 18 6 4 22
-19 22 -10 0 -19 7 -19 15 0 8 -4 15 -10 15 -5 0 -10 -9 -10 -19z m243 -135
c18 -14 22 -26 10 -26 -5 0 -19 9 -33 20 -16 13 -20 20 -10 19 8 0 23 -6 33
-13z m147 -23 c0 -21 -3 -23 -14 -14 -18 15 -17 51 1 44 7 -3 13 -16 13 -30z
m-65 -3 c-3 -4 3 -7 12 -6 9 0 18 -5 21 -13 3 -8 0 -11 -7 -7 -6 4 -11 3 -11
-3 0 -6 -7 -8 -15 -5 -8 4 -15 17 -15 31 0 14 4 22 10 18 6 -4 8 -10 5 -15z
m145 -222 c0 -25 -44 -87 -54 -77 -4 3 5 18 19 33 14 15 25 36 25 47 0 10 2
19 5 19 3 0 5 -10 5 -22z m-31 -5 c-31 -42 -42 -52 -49 -48 -4 3 4 18 19 35
28 31 52 42 30 13z m161 -50 c0 -25 -10 -29 -28 -11 -13 13 -16 50 -5 61 9 10
32 -25 33 -50z m-107 -10 c-20 -32 -33 -43 -50 -43 -21 0 -15 16 11 28 13 6
30 25 37 42 8 18 15 25 17 16 2 -8 -5 -27 -15 -43z m27 -22 c0 -6 -10 -22 -23
-37 -21 -24 -24 -25 -36 -10 -12 14 -11 16 8 16 11 0 26 9 33 20 14 22 18 25
18 11z m-16 -66 c-4 -8 -11 -15 -16 -15 -6 0 -5 6 2 15 7 8 14 15 16 15 2 0 1
-7 -2 -15z m436 -15 c6 -11 7 -20 2 -20 -6 0 -12 9 -15 20 -3 11 -3 20 -1 20
2 0 8 -9 14 -20z m-196 -22 c5 -15 7 -30 3 -34 -9 -9 -37 22 -42 46 -6 32 27
21 39 -12z m-1318 -1329 c24 -27 11 -67 -28 -83 -40 -17 -70 -10 -63 15 3 11
8 28 11 39 5 18 2 20 -20 16 -14 -2 -33 -10 -43 -16 -16 -11 -17 -11 0 -6 14
4 17 -1 17 -25 0 -44 -18 -73 -35 -59 -8 7 -31 16 -50 20 -32 7 -41 4 -78 -24
-44 -33 -57 -60 -38 -79 8 -8 11 -4 11 14 0 30 25 56 61 62 29 6 89 -17 89
-33 0 -18 -79 -97 -114 -114 -120 -57 -222 56 -160 176 18 35 71 77 126 100
64 26 289 24 314 -3z"/>
<path d="M2185 3190 c4 -14 13 -28 19 -32 20 -13 18 1 -4 29 -22 28 -22 28
-15 3z"/>
<path d="M2080 3186 c0 -2 7 -6 15 -10 8 -3 15 -1 15 4 0 6 -7 10 -15 10 -8 0
-15 -2 -15 -4z"/>
<path d="M2210 3080 c0 -5 5 -10 11 -10 5 0 7 5 4 10 -3 6 -8 10 -11 10 -2 0
-4 -4 -4 -10z"/>
<path d="M2513 2993 c-15 -31 -9 -53 17 -66 17 -9 27 -23 30 -47 l5 -35 13 34
c10 29 10 38 -3 57 -9 14 -21 21 -30 18 -9 -4 -15 0 -15 9 0 16 16 17 38 3 10
-6 12 -3 10 10 -6 36 -51 47 -65 17z"/>
<path d="M2326 2992 c-3 -5 8 -12 24 -14 17 -3 30 -1 30 4 0 4 -4 8 -9 8 -5 0
-16 3 -24 6 -8 3 -18 1 -21 -4z"/>
<path d="M2590 2989 c0 -8 4 -28 9 -46 6 -21 5 -35 -2 -44 -9 -9 -7 -9 6 1 13
10 17 23 14 48 -5 35 -27 69 -27 41z"/>
<path d="M2490 2926 c0 -3 9 -20 19 -38 11 -17 18 -34 16 -38 -2 -3 5 -17 15
-30 l19 -25 -8 38 c-5 20 -7 37 -5 37 3 0 0 9 -6 20 -10 18 -50 47 -50 36z"/>
<path d="M2660 2871 c0 -5 6 -11 14 -14 7 -3 16 -22 20 -41 4 -20 11 -36 16
-36 10 0 6 54 -5 83 -7 17 -45 24 -45 8z"/>
<path d="M2440 2805 c0 -8 2 -15 4 -15 2 0 6 7 10 15 3 8 1 15 -4 15 -6 0 -10
-7 -10 -15z"/>
<path d="M2617 2813 c-3 -5 0 -17 4 -28 8 -18 9 -18 5 3 -3 18 -1 22 10 18 9
-3 12 -1 9 4 -7 12 -22 13 -28 3z"/>
<path d="M2675 2720 c-4 -6 -1 -18 7 -27 7 -9 12 -18 11 -20 -9 -11 0 -42 17
-61 20 -21 69 -31 71 -14 0 4 2 19 4 35 2 15 0 25 -5 22 -5 -3 -20 7 -34 22
l-26 27 5 -33 c4 -31 3 -33 -12 -19 -8 9 -15 28 -15 42 0 29 -13 43 -23 26z
m92 -83 c-2 -6 -10 -11 -19 -13 -11 -1 -14 4 -11 16 3 11 11 16 19 13 8 -3 13
-10 11 -16z"/>
<path d="M2631 2684 c27 -30 52 -88 42 -98 -4 -3 -1 -6 5 -6 30 0 -5 90 -45
115 l-28 18 26 -29z"/>
<path d="M2591 2673 c1 -5 0 -10 -1 -13 -1 -3 -3 -21 -5 -41 -4 -36 24 -99 45
-99 31 0 34 92 4 134 -18 23 -46 36 -43 19z m45 -66 c8 -23 9 -39 3 -42 -5 -4
-7 -11 -4 -16 4 -5 2 -9 -3 -9 -15 0 -41 66 -32 80 5 8 6 18 3 23 -3 5 0 8 7
5 7 -2 19 -21 26 -41z"/>
<path d="M2435 2640 c-8 -13 4 -32 16 -25 12 8 12 35 0 35 -6 0 -13 -4 -16
-10z"/>
<path d="M2503 2613 c4 -3 0 -17 -9 -31 -9 -13 -11 -21 -5 -18 6 4 14 1 17 -8
3 -8 12 -17 19 -20 11 -4 11 1 1 27 -8 18 -11 38 -9 45 3 6 -1 12 -8 12 -7 0
-9 -3 -6 -7z"/>
<path d="M2710 2568 c0 -13 -7 -32 -15 -42 -20 -26 -19 -36 4 -36 12 0 22 10
28 28 10 31 6 72 -8 72 -5 0 -9 -10 -9 -22z"/>
<path d="M2777 2551 c3 -11 -2 -21 -12 -25 -9 -3 -14 -10 -11 -15 8 -13 -44
-52 -58 -44 -6 4 -5 -1 3 -10 17 -22 22 -21 51 5 17 16 25 19 28 9 3 -8 13
-22 23 -32 25 -25 57 -8 54 30 -3 47 -5 52 -14 47 -5 -3 -7 -15 -4 -25 3 -10
0 -22 -6 -26 -18 -11 -43 23 -43 60 0 19 -4 37 -8 40 -5 3 -6 -3 -3 -14z"/>
<path d="M1216 2063 c-6 -14 -5 -15 5 -6 7 7 10 15 7 18 -3 3 -9 -2 -12 -12z"/>
<path d="M1533 1319 c-29 -4 -73 -17 -99 -30 -50 -24 -144 -112 -144 -134 0
-7 -3 -20 -6 -28 -3 -8 2 -22 11 -31 15 -15 20 -14 58 8 22 14 49 32 59 40 20
18 23 9 8 -29 -9 -23 -8 -26 6 -21 9 3 27 9 40 12 13 3 24 10 24 15 0 5 -7 6
-15 3 -13 -5 -13 -1 0 35 9 27 10 41 3 41 -6 0 -7 7 -3 18 13 32 15 62 5 62
-5 0 -17 -17 -25 -37 -22 -52 -61 -100 -96 -118 -16 -9 -30 -14 -30 -13 -20
42 16 105 83 149 37 24 59 31 105 32 l58 2 -3 -39 c-2 -22 -14 -67 -28 -100
-13 -32 -22 -61 -20 -63 10 -11 109 51 155 97 41 40 81 103 81 126 0 2 -22 4
-49 4 -41 0 -51 -4 -66 -26 -18 -29 -15 -43 5 -19 14 17 65 20 75 5 3 -5 1
-10 -4 -10 -6 0 -11 -7 -11 -15 0 -30 -120 -139 -136 -122 -3 2 4 27 15 54 17
44 25 87 22 119 -2 18 -21 21 -78 13z"/>
<path d="M1847 1288 c-110 -61 -178 -160 -134 -197 10 -8 28 -2 72 24 31 19
59 35 61 35 2 0 -2 -11 -8 -25 -15 -34 -8 -38 38 -21 21 8 31 15 21 15 -14 1
-17 6 -12 22 4 12 8 38 10 58 1 20 3 41 5 46 5 20 0 36 -10 30 -5 -3 -18 -25
-29 -48 -33 -69 -94 -125 -116 -107 -30 25 27 115 93 149 45 23 132 36 132 21
0 -6 4 -9 9 -5 24 14 18 -21 -18 -104 -33 -76 -37 -91 -23 -91 10 0 27 19 41
45 24 45 121 145 141 145 6 0 -5 -30 -25 -68 -19 -37 -38 -82 -41 -100 l-7
-33 38 15 c21 9 39 16 41 16 2 0 4 4 4 10 0 5 -7 7 -15 4 -24 -9 -18 10 25 90
22 40 40 81 40 90 0 27 -44 15 -100 -27 -28 -21 -50 -35 -50 -33 0 3 5 17 10
31 13 35 5 46 -25 35 -17 -6 -25 -6 -25 1 0 20 -90 5 -143 -23z"/>
<path d="M2325 1302 c-106 -45 -192 -139 -178 -193 8 -29 42 -23 102 17 29 20
50 31 47 25 -4 -6 -9 -23 -12 -37 -4 -23 -2 -25 18 -19 13 4 30 11 38 16 13 7
12 8 -3 9 -16 0 -16 3 -2 37 10 22 12 39 6 43 -6 3 -6 11 -1 20 12 19 13 60 2
60 -5 0 -19 -22 -31 -50 -20 -43 -91 -120 -112 -120 -12 0 -18 27 -11 54 17
63 111 127 192 132 25 1 48 3 53 3 4 1 7 6 7 11 0 16 -71 11 -115 -8z"/>
<path d="M2240 1060 c-46 -13 -87 -39 -119 -75 -17 -20 -31 -40 -31 -45 0 -12
-37 -13 -44 -1 -3 5 -1 23 5 39 6 17 9 38 7 46 -3 13 -8 12 -38 -1 -31 -15
-32 -17 -13 -20 19 -4 20 -7 11 -34 l-10 -30 -63 6 c-73 8 -87 -2 -50 -39 14
-14 25 -35 25 -46 0 -19 -6 -17 -47 21 -112 99 -211 102 -276 9 -59 -85 32
-204 154 -201 93 2 197 70 254 167 17 29 33 44 46 44 16 0 19 -4 14 -17 -30
-80 -20 -154 26 -182 32 -20 94 -20 129 -1 34 18 93 110 71 110 -5 0 -14 -14
-21 -31 -22 -52 -83 -77 -140 -58 -31 11 -52 53 -45 91 12 63 18 78 28 79 7 0
37 1 67 3 60 3 135 32 162 62 28 32 38 70 24 89 -14 19 -83 27 -126 15z m95
-30 c36 -30 -4 -83 -72 -96 -69 -13 -143 -12 -143 3 0 22 71 93 104 102 38 12
91 7 111 -9z m-567 -114 c26 -13 71 -49 101 -79 60 -61 59 -67 -9 -102 -88
-46 -213 -11 -245 67 -20 50 -8 96 33 120 37 24 64 22 120 -6z m218 -17 c6
-11 -47 -109 -59 -109 -5 0 -6 8 -3 18 8 27 10 87 3 98 -4 7 5 9 24 6 16 -2
32 -8 35 -13z"/>
<path d="M2940 1039 c-17 -7 -21 -12 -12 -18 8 -5 9 -16 3 -37 -12 -41 -71
-187 -80 -199 -5 -5 -11 -19 -13 -30 -3 -11 -9 -28 -13 -37 -5 -14 -2 -18 14
-18 12 0 21 6 21 13 0 31 122 169 136 154 3 -3 -8 -37 -25 -75 -32 -72 -38
-102 -21 -102 19 0 59 23 54 32 -3 4 -9 6 -14 3 -12 -7 3 42 28 90 28 55 35
82 22 90 -12 7 -62 -22 -104 -62 -34 -31 -34 -31 13 92 31 79 38 116 24 114
-5 0 -19 -5 -33 -10z"/>
<path d="M2610 965 c-10 -12 -10 -15 3 -15 19 0 31 16 18 24 -5 3 -14 -1 -21
-9z"/>
<path d="M3145 940 c-6 -18 -17 -24 -37 -21 -13 2 -9 -17 4 -21 7 -3 0 -28
-21 -73 -18 -38 -35 -84 -38 -102 -5 -30 -3 -33 18 -33 13 1 35 8 49 16 l25
15 -27 -6 c-38 -7 -36 7 8 105 28 62 42 80 58 81 17 1 18 2 4 6 -20 5 -23 18
-8 28 6 4 8 11 5 16 -10 16 -33 10 -40 -11z"/>
<path d="M2425 894 c-16 -8 -41 -25 -53 -37 -53 -49 -81 -148 -46 -161 18 -7
71 14 100 40 25 23 48 64 36 64 -5 0 -14 -11 -22 -24 -16 -30 -76 -64 -89 -51
-13 14 14 95 41 126 27 30 50 40 67 29 16 -9 -37 -49 -56 -43 -7 3 -13 -1 -13
-7 0 -17 46 -4 82 22 55 38 14 75 -47 42z"/>
<path d="M2586 903 c-4 -5 -12 -9 -17 -9 -21 -3 -23 -6 -7 -12 16 -7 16 -10
-3 -52 -11 -24 -25 -48 -32 -52 -7 -4 -8 -8 -4 -8 4 0 2 -10 -5 -22 -6 -13
-13 -31 -15 -40 -2 -15 1 -15 29 -6 18 6 27 13 20 16 -18 6 -16 14 28 90 22
38 40 76 40 86 0 16 -21 22 -34 9z"/>
<path d="M2754 887 c-54 -29 -85 -55 -114 -97 -30 -42 -35 -66 -19 -86 15 -18
42 -10 87 23 l33 25 -7 -29 c-10 -41 -49 -115 -72 -136 -22 -20 -79 -30 -88
-16 -6 10 -24 3 -24 -11 0 -18 44 -21 85 -6 28 11 55 33 79 63 40 52 83 156
67 161 -7 2 -8 10 -3 20 8 15 8 26 3 50 -1 4 -10 -8 -19 -25 -22 -42 -80 -103
-97 -103 -31 0 -21 56 18 99 31 34 95 61 145 61 31 0 42 4 42 15 0 23 -67 18
-116 -8z"/>
<path d="M3280 883 c-33 -28 -33 -27 -14 -120 5 -28 3 -34 -20 -44 -20 -9 -29
-9 -41 1 -19 16 -30 7 -21 -16 15 -40 116 18 116 67 0 11 -6 35 -14 54 -13 31
-13 35 6 52 19 17 20 17 33 0 13 -18 14 -18 24 2 15 28 14 31 -13 31 -14 0
-39 -12 -56 -27z"/>
</g>
</svg>
